<svg width="381" xmlns="http://www.w3.org/2000/svg" height="338" id="screenshot-c51f1191-6bb4-805c-8005-390158bea2f1" viewBox="0 0 381 338" xmlns:xlink="http://www.w3.org/1999/xlink" fill="none" version="1.1"><g id="shape-c51f1191-6bb4-805c-8005-390158bea2f1" data-testid="Group" rx="0" ry="0"><g id="shape-c51f1191-6bb4-805c-8005-38f1ab06d61d" data-testid="jessica-cosmetics-international-black" width="257.33334" version="1.1" height="257.33334" rx="0" ry="0" style="fill: rgb(0, 0, 0);"><g id="shape-c51f1191-6bb4-805c-8005-38f1ab0780df" data-testid="base-background"><g class="fills" id="fills-c51f1191-6bb4-805c-8005-38f1ab0780df"><rect width="381.00000000000045" height="338" x="0" transform="matrix(1.000000, 0.000000, 0.000000, 1.000000, 0.000000, 0.000000)" style="fill: none;" ry="0" fill="none" rx="0" y="0"/></g></g><g id="shape-c51f1191-6bb4-805c-8005-38f1ab080699" data-testid="defs6"><defs style="fill: rgb(0, 0, 0);"/></g><g id="shape-c51f1191-6bb4-805c-8005-38f1ab08069a" data-testid="g8" rx="0" ry="0" style="fill: rgb(0, 0, 0);"><g id="shape-c51f1191-6bb4-805c-8005-38f1ab08555d" data-testid="g10" rx="0" ry="0" style="fill: rgb(0, 0, 0);"><g id="shape-c51f1191-6bb4-805c-8005-38f1ab08bea5" data-testid="path12"><g class="fills" id="fills-c51f1191-6bb4-805c-8005-38f1ab08bea5"><path d="M0.000,0.427L380.518,0.427L380.518,338.000L0.000,338.000L0.000,0.427Z" style="fill-rule: evenodd; stroke: none; fill: rgb(0, 0, 0); fill-opacity: 1;"/></g></g><g id="shape-c51f1191-6bb4-805c-8005-38f1ab0ac637" data-testid="path14"><g class="fills" id="fills-c51f1191-6bb4-805c-8005-38f1ab0ac637"><path d="M340.194,233.158C336.468,233.158,333.559,230.598,333.559,227.119C333.559,223.697,336.468,221.117,340.194,221.117C343.879,221.117,346.785,223.697,346.785,227.119C346.785,230.598,343.879,233.158,340.194,233.158ZZM271.775,267.945L263.447,267.945C248.171,266.717,240.042,258.601,240.042,244.332C240.042,236.665,242.507,230.984,247.905,226.615C252.988,222.458,259.678,220.417,268.370,220.417C274.760,220.417,279.994,221.506,283.065,223.482C285.679,225.182,287.219,227.295,289.453,232.081L278.069,236.390C277.378,233.516,276.608,232.218,275.068,231.055C273.145,229.684,270.293,228.861,267.144,228.861C258.367,228.861,253.298,234.678,253.298,244.741C253.298,254.120,258.367,259.661,267.065,259.661C270.222,259.661,273.066,258.770,275.068,257.061L275.068,257.061C276.379,255.897,277.149,254.736,278.069,252.132L289.526,256.583C287.146,261.091,285.294,263.203,281.995,265.043C279.235,266.651,275.897,267.590,271.775,267.945ZZM191.614,267.945L183.375,267.945C179.275,267.589,176.067,266.640,173.086,264.981C169.791,263.146,168.331,261.580,166.479,257.899L178.070,253.867C179.916,257.830,183.144,259.747,188.099,259.747C192.662,259.747,195.609,257.761,195.609,254.688C195.609,252.772,194.597,251.541,192.279,250.447C190.421,249.556,190.421,249.556,184.383,248.051C180.451,247.025,175.768,244.703,173.471,242.582C171.175,240.531,169.636,237.112,169.636,234.034C169.636,230.411,171.626,226.648,174.926,224.253C178.455,221.722,183.379,220.425,189.721,220.425C199.743,220.425,205.509,223.159,208.433,229.183L197.682,233.556C196.142,229.866,193.282,228.087,189.025,228.087C185.152,228.087,182.140,230.276,182.140,233.010C182.140,234.583,183.223,236.018,185.003,236.838C186.626,237.523,186.626,237.523,193.515,239.504C198.296,240.807,201.819,242.311,204.129,243.815L204.129,243.815C207.126,245.863,208.972,249.421,208.972,253.250C208.972,257.830,206.508,261.988,202.133,264.708C199.295,266.542,195.942,267.571,191.614,267.945ZZM145.143,267.945L136.908,267.945C132.808,267.589,129.599,266.640,126.617,264.981C123.319,263.146,121.862,261.580,120.013,257.899L131.604,253.867C133.444,257.830,136.677,259.747,141.632,259.747C146.189,259.747,149.134,257.761,149.134,254.688C149.134,252.772,148.125,251.541,145.805,250.447C143.947,249.556,143.947,249.556,137.907,248.051C133.985,247.025,129.302,244.703,127.002,242.582C124.700,240.531,123.166,237.112,123.166,234.034C123.166,230.411,125.159,226.648,128.460,224.253C131.988,221.722,136.913,220.425,143.255,220.425C153.277,220.425,159.042,223.159,161.964,229.183L151.209,233.556C149.669,229.866,146.808,228.087,142.557,228.087C138.683,228.087,135.674,230.276,135.674,233.010C135.674,234.583,136.756,236.018,138.527,236.838C140.156,237.523,140.156,237.523,147.043,239.504C151.816,240.807,155.351,242.311,157.660,243.815L157.660,243.815C160.653,245.863,162.506,249.421,162.506,253.250C162.506,257.830,160.041,261.988,155.664,264.708C152.823,266.542,149.469,267.571,145.143,267.945ZZM51.137,267.945L44.057,267.945C40.420,267.564,37.642,266.512,35.788,264.761C34.171,263.261,33.327,261.689,32.094,258.072L44.250,254.453C45.019,257.800,46.636,259.234,49.868,259.234C52.484,259.234,54.557,258.072,55.405,256.026C55.790,254.932,55.943,253.838,55.943,250.696L55.943,221.522L68.253,221.522L68.253,250.696C68.253,257.525,67.101,260.805,63.870,263.465C60.855,265.916,56.457,267.460,51.137,267.945ZZM340.194,219.915C335.714,219.915,331.920,222.972,331.920,227.119C331.920,231.305,335.714,234.362,340.194,234.362C344.633,234.362,348.423,231.305,348.423,227.119C348.423,222.972,344.633,219.915,340.194,219.915ZZM338.470,226.622L338.470,224.041L340.411,224.041C341.402,224.041,342.456,224.233,342.456,225.266C342.456,226.544,341.380,226.622,340.172,226.622L338.470,226.622ZZM343.944,225.341C343.944,223.697,342.845,222.972,340.626,222.972L337.049,222.972L337.049,231.305L338.470,231.305L338.470,227.692L340.109,227.692L342.586,231.305L344.181,231.305L341.508,227.635C342.886,227.481,343.944,226.831,343.944,225.341ZZM218.317,267.085L230.623,267.085L230.623,221.522L218.317,221.522L218.317,267.085ZZM310.021,249.773L317.026,233.562L323.339,249.773L310.021,249.773ZZM310.483,221.522L290.334,267.085L302.794,267.085L306.879,257.436L325.875,257.436L329.723,267.085L343.261,267.085L324.798,221.522L310.483,221.522ZZM181.221,84.475L193.811,84.475L193.811,153.198C192.774,158.047,190.613,162.433,187.525,165.965C184.425,162.429,182.257,158.033,181.221,153.172L181.221,84.475ZZM167.874,195.514C175.091,195.514,181.687,194.403,187.550,192.426C193.395,194.388,199.966,195.490,207.151,195.490C243.163,195.490,256.737,173.407,256.737,156.231C256.737,154.011,257.459,152.906,255.102,152.906L234.921,152.906C233.614,152.906,233.549,153.273,233.549,154.753L233.304,156.259C230.910,164.371,224.545,172.718,211.514,174.278C215.200,168.400,217.196,161.708,217.196,154.723L217.196,84.447L230.544,84.447C232.635,84.447,233.675,82.442,233.675,80.982L233.675,65.554C233.675,64.092,232.635,63.423,230.544,63.423L144.469,63.423C142.395,63.423,141.348,64.117,141.348,65.577L141.348,81.008C141.348,82.468,142.395,84.475,144.469,84.475L157.834,84.475L157.834,154.697C157.834,161.704,159.844,168.417,163.554,174.309C150.491,172.761,144.113,164.404,141.728,156.287L141.475,154.778C141.475,153.300,141.415,152.928,140.102,152.928L119.919,152.928C117.566,152.928,118.285,154.039,118.285,156.254C118.285,173.434,131.856,195.514,167.874,195.514ZZM92.219,248.058L113.148,248.058L113.148,240.039L92.219,240.039L92.219,229.973L113.148,229.973L113.148,221.522L79.910,221.522L79.910,267.085L116.225,267.085L116.225,258.637L92.219,258.637L92.219,248.058ZL92.219,248.058Z" style="fill-rule: nonzero; stroke: none; fill: rgb(255, 255, 255); fill-opacity: 1;"/></g></g></g></g></g></g></svg>