<?xml version="1.0" encoding="UTF-8" standalone="no"?>
<!-- Created with Inkscape (http://www.inkscape.org/) -->

<svg
   version="1.1"
   id="svg2"
   width="257.33334"
   height="257.33334"
   viewBox="0 0 257.33334 257.33334"
   sodipodi:docname="jessica-cosmetics-international-seeklogo.eps"
   xmlns:inkscape="http://www.inkscape.org/namespaces/inkscape"
   xmlns:sodipodi="http://sodipodi.sourceforge.net/DTD/sodipodi-0.dtd"
   xmlns="http://www.w3.org/2000/svg"
   xmlns:svg="http://www.w3.org/2000/svg">
  <defs
     id="defs6" />
  <sodipodi:namedview
     id="namedview4"
     pagecolor="#ffffff"
     bordercolor="#000000"
     borderopacity="0.25"
     inkscape:showpageshadow="2"
     inkscape:pageopacity="0.0"
     inkscape:pagecheckerboard="0"
     inkscape:deskcolor="#d1d1d1" />
  <g
     id="g8"
     inkscape:groupmode="layer"
     inkscape:label="ink_ext_XXXXXX"
     transform="matrix(1.3333333,0,0,-1.3333333,0,257.33333)">
    <g
       id="g10"
       transform="scale(0.1)">
      <path
         d="M 0,1927.56 H 1927.56 V 0 H 0 v 1927.56"
         style="fill:#ffffff;fill-opacity:1;fill-rule:evenodd;stroke:none"
         id="path12" />
      <path
         d="m 1723.29,598.656 c -18.87,0 -33.61,14.617 -33.61,34.481 0,19.539 14.74,34.269 33.61,34.269 18.67,0 33.39,-14.73 33.39,-34.269 0,-19.864 -14.72,-34.481 -33.39,-34.481 z m -346.58,-198.64 h -42.19 c -77.38,7.015 -118.56,53.359 -118.56,134.832 0,43.781 12.49,76.218 39.83,101.168 25.75,23.738 59.64,35.39 103.67,35.39 32.37,0 58.88,-6.218 74.44,-17.5 13.24,-9.707 21.04,-21.773 32.36,-49.105 l -57.67,-24.602 c -3.5,16.41 -7.4,23.824 -15.2,30.461 -9.74,7.828 -24.19,12.528 -40.14,12.528 -44.46,0 -70.14,-33.211 -70.14,-90.676 0,-53.551 25.68,-85.192 69.74,-85.192 15.99,0 30.4,5.086 40.54,14.848 v 0 c 6.64,6.645 10.54,13.277 15.2,28.145 l 58.04,-25.415 c -12.06,-25.742 -21.44,-37.8 -38.15,-48.308 -13.98,-9.184 -30.89,-14.543 -51.77,-16.574 z m -406.069,0 h -41.735 c -20.765,2.035 -37.019,7.453 -52.117,16.925 -16.691,10.477 -24.09,19.422 -33.469,40.442 l 58.715,23.023 c 9.352,-22.629 25.703,-33.574 50.801,-33.574 23.117,0 38.043,11.336 38.043,28.887 0,10.937 -5.125,17.969 -16.867,24.211 -9.414,5.09 -9.414,5.09 -40,13.683 -19.914,5.86 -43.641,19.117 -55.274,31.227 -11.633,11.711 -19.429,31.234 -19.429,48.812 0,20.688 10.082,42.172 26.8,55.848 17.875,14.457 42.817,21.859 74.946,21.859 50.765,0 79.975,-15.609 94.785,-50.007 l -54.46,-24.973 c -7.798,21.074 -22.286,31.23 -43.853,31.23 -19.617,0 -34.875,-12.5 -34.875,-28.109 0,-8.984 5.485,-17.176 14.5,-21.859 8.223,-3.911 8.223,-3.911 43.121,-15.223 24.217,-7.441 42.067,-16.027 53.767,-24.617 v 0 c 15.18,-11.696 24.53,-32.008 24.53,-53.871 0,-26.153 -12.48,-49.899 -34.64,-65.426 -14.38,-10.477 -31.364,-16.348 -53.289,-18.488 z m -235.403,0 h -41.715 c -20.769,2.035 -37.023,7.453 -52.132,16.925 -16.703,10.477 -24.086,19.422 -33.453,40.442 l 58.718,23.023 c 9.321,-22.629 25.699,-33.574 50.797,-33.574 23.082,0 38.004,11.336 38.004,28.887 0,10.937 -5.113,17.969 -16.867,24.211 -9.41,5.09 -9.41,5.09 -40.004,13.683 -19.871,5.86 -43.594,19.117 -55.242,31.227 -11.664,11.711 -19.43,31.234 -19.43,48.812 0,20.688 10.094,42.172 26.813,55.848 17.875,14.457 42.82,21.859 74.949,21.859 50.769,0 79.972,-15.609 94.773,-50.007 l -54.484,-24.973 c -7.797,21.074 -22.293,31.23 -43.824,31.23 -19.625,0 -34.868,-12.5 -34.868,-28.109 0,-8.984 5.481,-17.176 14.454,-21.859 8.25,-3.911 8.25,-3.911 43.136,-15.223 24.18,-7.441 42.086,-16.027 53.782,-24.617 v 0 c 15.164,-11.696 24.546,-32.008 24.546,-53.871 0,-26.153 -12.484,-49.899 -34.656,-65.426 -14.39,-10.477 -31.383,-16.348 -53.297,-18.488 z m -476.199,0 h -35.863 c -18.422,2.179 -32.496,8.183 -41.887,18.183 -8.191,8.567 -12.469,17.539 -18.715,38.196 l 61.582,20.664 c 3.895,-19.11 12.086,-27.301 28.457,-27.301 13.25,0 23.754,6.637 28.047,18.316 1.949,6.25 2.727,12.496 2.727,30.438 v 166.582 h 62.359 V 498.512 c 0,-38.996 -5.836,-57.723 -22.203,-72.914 -15.273,-13.996 -37.555,-22.813 -64.504,-25.582 z M 1723.29,674.273 c -22.69,0 -41.91,-17.457 -41.91,-41.136 0,-23.903 19.22,-41.356 41.91,-41.356 22.49,0 41.69,17.453 41.69,41.356 0,23.679 -19.2,41.136 -41.69,41.136 z m -8.73,-38.296 v 14.734 h 9.83 c 5.02,0 10.36,-1.094 10.36,-6.992 0,-7.301 -5.45,-7.742 -11.57,-7.742 h -8.62 z m 27.73,7.312 c 0,9.387 -5.57,13.527 -16.81,13.527 h -18.12 v -47.582 h 7.2 v 20.629 h 8.3 l 12.55,-20.629 h 8.08 l -13.54,20.957 c 6.98,0.879 12.34,4.59 12.34,13.098 z M 1105.91,404.926 h 62.34 v 260.168 h -62.34 V 404.926 Z m 464.54,98.855 35.48,92.567 31.98,-92.567 h -67.46 z m 2.34,161.313 -102.07,-260.168 h 63.12 l 20.69,55.101 h 96.23 l 19.49,-55.101 h 68.58 l -93.53,260.168 h -72.51 z M 917.996,1447.64 h 63.777 v -392.41 c -5.253,-27.69 -16.203,-52.73 -31.843,-72.898 -15.703,20.188 -26.684,45.288 -31.934,73.048 v 392.26 z M 850.387,813.602 c 36.558,0 69.968,6.343 99.672,17.636 29.605,-11.203 62.891,-17.5 99.291,-17.5 182.42,0 251.18,126.098 251.18,224.172 0,12.68 3.66,18.99 -8.28,18.99 h -102.23 c -6.62,0 -6.95,-2.1 -6.95,-10.55 l -1.24,-8.6 c -12.13,-46.316 -44.37,-93.98 -110.38,-102.887 18.67,33.563 28.78,71.777 28.78,111.657 v 401.28 h 67.62 c 10.59,0 15.86,11.45 15.86,19.79 v 88.09 c 0,8.35 -5.27,12.17 -15.86,12.17 H 731.824 c -10.504,0 -15.808,-3.96 -15.808,-12.3 v -88.11 c 0,-8.34 5.304,-19.8 15.808,-19.8 h 67.703 v -400.97 c 0,-40.01 10.18,-78.342 28.973,-111.982 -66.168,8.835 -98.48,56.558 -110.559,102.902 l -1.281,8.62 c 0,8.44 -0.305,10.56 -6.957,10.56 H 607.465 c -11.922,0 -8.281,-6.34 -8.281,-18.99 0,-98.096 68.75,-224.178 251.203,-224.178 z M 467.148,513.574 h 106.016 v 45.789 H 467.148 v 57.477 h 106.016 v 48.254 H 404.793 V 404.926 H 588.75 v 48.242 H 467.148 v 60.406 0"
         style="fill:#231f20;fill-opacity:1;fill-rule:nonzero;stroke:none"
         id="path14" />
    </g>
  </g>
</svg>
